<svg width="32" height="32" viewBox="0 0 32 32" fill="none" xmlns="http://www.w3.org/2000/svg">
	<path d="M24.3609 8.46091C24.3609 9.52129 23.5012 10.3809 22.4409 10.3809C21.3805 10.3809 20.5209 9.52129 20.5209 8.46091C20.5209 7.40052 21.3805 6.54091 22.4409 6.54091C23.5012 6.54091 24.3609 7.40052 24.3609 8.46091Z" fill="#FEFDE8" />
	<path fill-rule="evenodd" clip-rule="evenodd" d="M22.4409 11.3409C24.0314 11.3409 25.3209 10.0515 25.3209 8.46091C25.3209 7.48348 24.8339 6.61978 24.0894 6.09913C22.81 5.97874 21.5557 6.10789 20.3795 6.44965C19.873 6.96872 19.5609 7.67836 19.5609 8.46091C19.5609 10.0515 20.8503 11.3409 22.4409 11.3409ZM22.4409 10.3809C23.5012 10.3809 24.3609 9.52129 24.3609 8.46091C24.3609 7.40052 23.5012 6.54091 22.4409 6.54091C21.3805 6.54091 20.5209 7.40052 20.5209 8.46091C20.5209 9.52129 21.3805 10.3809 22.4409 10.3809Z" fill="#FE9B7C" />
	<path d="M12.3481 0.540381C12.0795 0.563879 11.813 0.593639 11.5486 0.629503C8.19714 1.59615 5.33041 3.61611 3.29147 6.28056C5.93342 3.73753 9.4301 2.04734 13.3679 1.70284C18.5789 1.24696 23.4383 3.24596 26.804 6.74161C26.3843 6.21591 25.934 5.71697 25.4556 5.24712C22.1063 1.95771 17.3918 0.0991368 12.3481 0.540381Z" fill="url(#gradient0)" />
	<path d="M9.47397 11.94L9.81969 12.8743L10.754 13.22L9.81969 13.5657L9.47397 14.5L9.12826 13.5657L8.19397 13.22L9.12826 12.8743L9.47397 11.94Z" fill="#FFFEEC" />
	<path fill-rule="evenodd" clip-rule="evenodd" d="M12.3743 9.27834L11.9421 8.11049L11.51 9.27834L10.3421 9.71049L11.51 10.1426L11.9421 11.3105L12.3743 10.1426L13.5421 9.71049L12.3743 9.27834ZM9.81969 12.8743L9.47397 11.94L9.12826 12.8743L8.19397 13.22L9.12826 13.5657L9.47397 14.5L9.81969 13.5657L10.754 13.22L9.81969 12.8743Z" fill="#001225" />
	<path fill-rule="evenodd" clip-rule="evenodd" d="M9.81969 12.8743L9.47397 11.94L9.12826 12.8743L8.19397 13.22L9.12826 13.5657L9.47397 14.5L9.81969 13.5657L10.754 13.22L9.81969 12.8743Z" fill="#FFFEEC" />
	<path d="M11.9421 8.11049L12.3743 9.27834L13.5421 9.71049L12.3743 10.1426L11.9421 11.3105L11.51 10.1426L10.3421 9.71049L11.51 9.27834L11.9421 8.11049Z" fill="#FFFEEC" />
	<path d="M13.3679 1.70284C9.4301 2.04734 5.93342 3.73753 3.29147 6.28056C1.29066 8.89519 0.0869732 12.1304 0.00453039 15.6H5.59586C6.39469 9.5551 11.2984 4.65844 17.6258 4.10489C21.0416 3.80607 24.2685 4.8252 26.804 6.74161C23.4383 3.24596 18.5789 1.24696 13.3679 1.70284Z" fill="#FFFEEC" />
	<path fill-rule="evenodd" clip-rule="evenodd" d="M24.9002 6.20866C25.5635 6.32561 26.1995 6.50615 26.804 6.74161C24.2685 4.8252 21.0416 3.80607 17.6258 4.10489C11.2984 4.65844 6.39469 9.5551 5.59586 15.6H13.1712C13.1912 15.1768 13.2382 14.7501 13.3137 14.3218C13.9981 10.4407 16.8346 7.47963 20.3795 6.44965C21.5557 6.10789 22.81 5.97874 24.0894 6.09913C24.3588 6.12447 24.6292 6.16087 24.9002 6.20866ZM12.3743 9.27834L11.9421 8.11049L11.51 9.27834L10.3421 9.71049L11.51 10.1426L11.9421 11.3105L12.3743 10.1426L13.5421 9.71049L12.3743 9.27834ZM9.81969 12.8743L9.47397 11.94L9.12826 12.8743L8.19397 13.22L9.12826 13.5657L9.47397 14.5L9.81969 13.5657L10.754 13.22L9.81969 12.8743Z" fill="#001225" />
	<path d="M25.3209 8.46091C25.3209 10.0515 24.0314 11.3409 22.4409 11.3409C20.8503 11.3409 19.5609 10.0515 19.5609 8.46091C19.5609 7.67836 19.873 6.96872 20.3795 6.44965C16.8346 7.47963 13.9981 10.4407 13.3137 14.3218C13.2382 14.7501 13.1912 15.1768 13.1712 15.6H31.9946C31.9861 15.2703 31.9674 14.9387 31.9382 14.6057C31.1681 5.80326 23.408 -0.708233 14.6056 0.0618388C13.5508 0.154112 12.529 0.346742 11.5486 0.629503C11.813 0.593639 12.0795 0.563879 12.3481 0.540381C17.3918 0.0991368 22.1063 1.95771 25.4556 5.24712C25.934 5.71697 26.3843 6.21591 26.804 6.74161C26.1995 6.50615 25.5635 6.32561 24.9002 6.20866C24.6292 6.16087 24.3588 6.12447 24.0894 6.09913C24.8339 6.61978 25.3209 7.48348 25.3209 8.46091Z" fill="url(#gradient1)" />
	<path d="M5.55754 15.92H0.000117845C-0.000645093 16.1193 0.00229434 16.3193 0.00899684 16.52H5.50685C5.51924 16.3189 5.53617 16.1189 5.55754 15.92Z" fill="#5891B1" />
	<path d="M13.1612 15.92H5.55754C5.53617 16.1189 5.51924 16.3189 5.50685 16.52H13.1703C13.1613 16.321 13.1582 16.121 13.1612 15.92Z" fill="#0B2A44" />
	<path d="M31.9997 15.92H13.1612C13.1582 16.121 13.1613 16.321 13.1703 16.52H31.9921C31.9984 16.3208 32.0009 16.1207 31.9997 15.92Z" fill="#FF664E" />
	<path d="M0.0321586 17C0.0404376 17.1312 0.0503296 17.2627 0.0618512 17.3943C0.0719672 17.51 0.0832889 17.6252 0.0958034 17.74H5.48761C5.4802 17.492 5.47971 17.2453 5.48595 17H0.0321586Z" fill="#5891B1" />
	<path d="M13.2037 17H5.48595C5.47971 17.2453 5.4802 17.492 5.48761 17.74H13.3014C13.2597 17.4957 13.227 17.2489 13.2037 17Z" fill="#0B2A44" />
	<path d="M31.9698 17H13.2037C13.227 17.2489 13.2597 17.4957 13.3014 17.74H31.9069C31.9335 17.4948 31.9545 17.2481 31.9698 17Z" fill="#FF664E" />
	<path d="M5.53304 18.514C5.52913 18.4693 5.52544 18.4246 5.52198 18.38H0.178463C0.223773 18.6831 0.277445 18.9832 0.339221 19.28H5.62211C5.58535 19.0272 5.55559 18.7718 5.53304 18.514Z" fill="#5891B1" />
	<path d="M5.52198 18.38C5.52544 18.4246 5.52913 18.4693 5.53304 18.514C5.55559 18.7718 5.58535 19.0272 5.62211 19.28H13.6928C13.5922 18.9852 13.5052 18.6849 13.4323 18.38H5.52198Z" fill="#0B2A44" />
	<path d="M31.8242 18.38H13.4323C13.5052 18.6849 13.5922 18.9852 13.6928 19.28H31.6626C31.7249 18.9827 31.7788 18.6826 31.8242 18.38Z" fill="#FF664E" />
	<path d="M31.4732 20.08H14.0047C14.1713 20.4586 14.361 20.8259 14.5723 21.18H31.1394C31.2635 20.8186 31.375 20.4518 31.4732 20.08Z" fill="#FF664E" />
	<path d="M14.0047 20.08H5.7633C5.84092 20.4531 5.93395 20.82 6.04164 21.18H14.5723C14.361 20.8259 14.1713 20.4586 14.0047 20.08Z" fill="#0B2A44" />
	<path d="M5.7633 20.08H0.527301C0.625063 20.4525 0.735752 20.8193 0.858824 21.18H6.04164C5.93395 20.82 5.84092 20.4531 5.7633 20.08Z" fill="#5891B1" />
	<path d="M30.4059 22.9581C30.5363 22.6893 30.6593 22.4165 30.7747 22.14H15.2229C15.5619 22.5829 15.938 22.998 16.3476 23.38H29.9784C30.1249 23.2438 30.2675 23.1031 30.4059 22.9581Z" fill="#FF664E" />
	<path d="M15.2229 22.14H6.36947C6.53302 22.5648 6.71754 22.9785 6.92166 23.38H16.3476C15.938 22.998 15.5619 22.5829 15.2229 22.14Z" fill="#0B2A44" />
	<path d="M30.1935 23.38C30.2664 23.2405 30.3372 23.0998 30.4059 22.9581C30.2675 23.1031 30.1249 23.2438 29.9784 23.38H30.1935Z" fill="#001225" />
	<path d="M6.36947 22.14H1.22147C1.39719 22.5633 1.5904 22.9769 1.80012 23.38H6.92166C6.71754 22.9785 6.53302 22.5648 6.36947 22.14Z" fill="#5891B1" />
	<path d="M29.5502 24.5H28.5281C27.4512 25.1849 26.2423 25.6659 24.9629 25.9H28.5613C28.9153 25.4516 29.2454 24.9843 29.5502 24.5Z" fill="#0B2A44" />
	<path d="M17.794 24.5H7.56172C7.87441 24.9901 8.21804 25.4576 8.58962 25.9H21.3791C20.0644 25.6618 18.8562 25.1763 17.794 24.5Z" fill="#0B2A44" />
	<path d="M7.56172 24.5H2.44179C2.74662 24.9854 3.07656 25.4526 3.42962 25.9H8.58962C8.21804 25.4576 7.87441 24.9901 7.56172 24.5Z" fill="#5891B1" />
	<path d="M28.5281 24.5H17.794C18.8562 25.1763 20.0644 25.6618 21.3791 25.9H24.9629C26.2423 25.6659 27.4512 25.1849 28.5281 24.5Z" fill="#FF664E" />
	<path d="M25.6807 28.732C26.2742 28.2799 26.8343 27.7877 27.3574 27.26H9.90719C10.5543 27.8395 11.2574 28.3557 12.0063 28.8H25.5674C25.6053 28.7775 25.6431 28.7549 25.6807 28.732Z" fill="#0B2A44" />
	<path d="M25.5908 28.8C25.6209 28.7774 25.6508 28.7548 25.6807 28.732C25.6431 28.7549 25.6053 28.7775 25.5674 28.8H25.5908Z" fill="#5891B1" />
	<path d="M9.90719 27.26H4.63374C5.18485 27.8157 5.77583 28.3305 6.4015 28.8H12.0063C11.2574 28.3557 10.5543 27.8395 9.90719 27.26Z" fill="#5891B1" />
	<path d="M15.4727 30.24C16.8937 30.6051 18.3997 30.7396 19.9444 30.6045C20.6805 30.5401 21.3973 30.4169 22.0906 30.24H15.4727Z" fill="#0B2A44" />
	<path d="M8.7023 30.24C11.2932 31.5709 14.2786 32.2108 17.3945 31.9382C19.518 31.7524 21.5061 31.1574 23.2916 30.24H22.0906C21.3973 30.4169 20.6805 30.5401 19.9444 30.6045C18.3997 30.7396 16.8937 30.6051 15.4727 30.24H8.7023Z" fill="#5891B1" />
	<defs>
		<radialGradient id="gradient0" cx="0" cy="0" r="1" gradientUnits="userSpaceOnUse" gradientTransform="translate(7.26086 3.04091) rotate(59.3548) scale(31.5725 13.3599)">
			<stop stop-color="#FEE9D0" />
			<stop offset="1" stop-color="#FCA683" />
		</radialGradient>
		<radialGradient id="gradient1" cx="0" cy="0" r="1" gradientUnits="userSpaceOnUse" gradientTransform="translate(12.76 0.42) rotate(57.6762) scale(8.22752 15.4734)">
			<stop stop-color="#FECFB2" />
			<stop offset="1" stop-color="#FF664E" />
		</radialGradient>
	</defs>
</svg>
