<svg width="20" height="16" viewBox="0 0 20 16" fill="none" xmlns="http://www.w3.org/2000/svg">
	<path d="M3.44026 0V14.9688L0 16V0H3.44026Z" fill="white" />
	<path d="M12.0389 16H6.27073V0H12.0866C13.7233 0 15.1323 0.320313 16.3134 0.960938C17.4946 1.59635 18.403 2.51042 19.0386 3.70313C19.6795 4.89583 20 6.32292 20 7.98438C20 9.65104 19.6795 11.0833 19.0386 12.2812C18.403 13.4792 17.4893 14.3984 16.2975 15.0391C15.1111 15.6797 13.6915 16 12.0389 16ZM9.71099 13.1016H11.8959C12.9129 13.1016 13.7683 12.9245 14.4622 12.5703C15.1614 12.2109 15.6858 11.6563 16.0354 10.9063C16.3902 10.151 16.5677 9.17708 16.5677 7.98438C16.5677 6.80208 16.3902 5.83594 16.0354 5.08594C15.6858 4.33594 15.164 3.78385 14.4702 3.42969C13.7763 3.07552 12.9208 2.89844 11.9039 2.89844H9.71099V13.1016Z" fill="white" />
</svg>
