<svg width="115" height="16" viewBox="0 0 115 16" fill="none" xmlns="http://www.w3.org/2000/svg">
	<path d="M45.3543 5.6654H41.9716C41.9098 5.23447 41.7837 4.85171 41.5932 4.51711C41.4027 4.17744 41.1581 3.88847 40.8595 3.65019C40.5608 3.41191 40.2159 3.2294 39.8246 3.10266C39.4384 2.97592 39.0188 2.91255 38.5657 2.91255C37.747 2.91255 37.0339 3.1128 36.4264 3.51331C35.8188 3.90875 35.3477 4.48669 35.013 5.24715C34.6783 6.00253 34.511 6.92015 34.511 8C34.511 9.11027 34.6783 10.0431 35.013 10.7985C35.3528 11.5539 35.8265 12.1242 36.4341 12.5095C37.0416 12.8948 37.7444 13.0875 38.5425 13.0875C38.9904 13.0875 39.4049 13.0292 39.7859 12.9125C40.1721 12.7959 40.5145 12.6261 40.8131 12.403C41.1117 12.1749 41.3589 11.8986 41.5545 11.5741C41.7553 11.2497 41.8944 10.8796 41.9716 10.4639L45.3543 10.4791C45.2668 11.1939 45.048 11.8834 44.6979 12.5475C44.3529 13.2066 43.8869 13.7972 43.3 14.3194C42.7182 14.8365 42.0231 15.2471 41.2147 15.5513C40.4115 15.8504 39.5028 16 38.4884 16C37.0777 16 35.8162 15.6857 34.7041 15.057C33.5971 14.4284 32.7218 13.5184 32.0782 12.327C31.4398 11.1356 31.1205 9.69328 31.1205 8C31.1205 6.30165 31.4449 4.85678 32.0937 3.6654C32.7424 2.47402 33.6228 1.56654 34.735 0.942966C35.8471 0.314322 37.0983 0 38.4884 0C39.4049 0 40.2545 0.126743 41.0371 0.380228C41.8249 0.633714 42.5225 1.0038 43.1301 1.49049C43.7376 1.97212 44.2319 2.56274 44.6129 3.26236C44.9991 3.96198 45.2462 4.76299 45.3543 5.6654Z" fill="white" />
	<path d="M60.9822 0.212928V15.7871H58.0937L51.2124 5.98479H51.0965V15.7871H47.7524V0.212928H50.6872L57.5145 10.0076H57.6535V0.212928H60.9822Z" fill="white" />
	<path d="M67.0893 0.212928V14.7833L63.7452 15.7871V0.212928H67.0893Z" fill="white" />
	<path d="M86.3856 15.7871V0.212928H89.7298V6.63878H96.5184V0.212928H99.8549V15.7871H96.5184V9.35361H89.7298V15.7871H86.3856Z" fill="white" />
	<path d="M102.01 2.92776V0.212928H115V2.92776H110.158V14.7833L106.852 15.7871V2.92776H102.01Z" fill="white" />
	<path d="M80.3287 5.24715C80.2206 4.87706 80.0687 4.55006 79.8731 4.26616C79.6774 3.97719 79.438 3.73384 79.1548 3.53612C78.8768 3.33333 78.5576 3.17871 78.1971 3.07224C77.8419 2.96578 77.448 2.91255 77.0155 2.91255C76.2071 2.91255 75.4966 3.11027 74.8839 3.5057C74.2763 3.90114 73.8027 4.47655 73.4628 5.23194C73.123 5.98226 72.9531 6.89987 72.9531 7.98479C72.9531 9.06971 73.1204 9.9924 73.4551 10.7529C73.7898 11.5133 74.2635 12.0938 74.8762 12.4943C75.4889 12.8897 76.2123 13.0875 77.0464 13.0875C77.8033 13.0875 78.4494 12.9556 78.9849 12.692C79.5255 12.4233 79.9374 12.0456 80.2206 11.5589C80.4946 11.0966 80.6384 10.5541 80.652 9.93156H77.2549V7.45247H83.8737V9.41445C83.8737 10.7833 83.5802 11.9594 82.9932 12.943C82.4063 13.9214 81.5979 14.6768 80.5682 15.2091C79.5384 15.7364 78.3593 16 77.0309 16C75.5481 16 74.2455 15.6781 73.123 15.0342C72.0006 14.3853 71.1253 13.4651 70.4971 12.2738C69.8741 11.0773 69.5626 9.65779 69.5626 8.01521C69.5626 6.75285 69.748 5.62738 70.1187 4.63878C70.4946 3.64512 71.0197 2.80355 71.6942 2.11407C72.3687 1.42459 73.1539 0.899873 74.0498 0.539924C74.9457 0.179975 75.9162 0 76.9614 0C77.8573 0 78.6914 0.129278 79.4637 0.387833C80.2361 0.641319 80.9209 1.00127 81.5181 1.46768C82.1205 1.93409 82.6122 2.48923 82.9932 3.13308C83.3743 3.77186 83.6188 4.47655 83.7269 5.24715H80.3287Z" fill="white" />
	<path fill-rule="evenodd" clip-rule="evenodd" d="M3.58355 15.7871H0L5.46028 0.212928H9.76982L15.2224 15.7871H11.6388L10.4678 12.2357H4.75688L3.58355 15.7871ZM7.55326 3.77186H7.67684L9.62022 9.6654H5.6061L7.55326 3.77186Z" fill="white" />
	<path fill-rule="evenodd" clip-rule="evenodd" d="M17.1261 15.7871V0.212928H23.3665C24.561 0.212928 25.5804 0.423321 26.4248 0.844107C27.2744 1.25982 27.9206 1.85044 28.3634 2.61597C28.8113 3.37643 29.0353 4.27123 29.0353 5.30038C29.0353 6.3346 28.8087 7.22433 28.3556 7.96958C27.9025 8.70976 27.2461 9.27757 26.3862 9.673C26.3391 9.69481 26.2914 9.71602 26.2432 9.73663L28.7639 14.2814L25.9074 15.7871L22.9114 10.2662H20.4703V15.7871H17.1261ZM24.3319 7.36122C23.9097 7.53359 23.3793 7.61977 22.7409 7.61977H20.4703V2.90494H22.7254C23.369 2.90494 23.9019 2.99873 24.3241 3.18631C24.7515 3.36882 25.0681 3.63752 25.2741 3.9924C25.4852 4.34728 25.5907 4.78327 25.5907 5.30038C25.5907 5.81242 25.4852 6.24081 25.2741 6.58555C25.0681 6.93029 24.7541 7.18885 24.3319 7.36122Z" fill="white" />
</svg>
